<?xml version="1.0" encoding="UTF-8"?>
<svg fill="#ffffff" viewBox="0 0 180 180" xmlns="http://www.w3.org/2000/svg">
<path d="m42.539 90c0 26.17 21.291 47.461 47.461 47.461s47.461-21.291 47.461-47.461-21.291-47.461-47.461-47.461-47.461 21.291-47.461 47.461zm47.461-36.914c20.354 0 36.914 16.56 36.914 36.914 0 20.354-16.56 36.914-36.914 36.914-20.354 0-36.914-16.56-36.914-36.914 0-20.354 16.56-36.914 36.914-36.914z"/>
<path d="m131.02 131.02c-2.06 2.059-2.06 5.398 0 7.458l25.462 25.462c2.059 2.059 5.398 2.06 7.458 0 2.059-2.06 2.059-5.398 0-7.458l-25.463-25.462c-2.059-2.06-5.398-2.06-7.457 0z"/>
<path d="m23.52 16.062c-2.0591-2.0595-5.3983-2.0595-7.4577 0-2.0595 2.0594-2.0595 5.3982 0 7.4577l25.462 25.462c2.0591 2.0594 5.3983 2.0598 7.4577 0 2.0595-2.0595 2.0595-5.3983 0-7.4577l-25.462-25.462z"/>
<path d="m16.062 163.94c2.0591 2.059 5.3982 2.06 7.4577 0l25.462-25.462c2.0595-2.06 2.0595-5.399 0-7.458-2.0591-2.06-5.3982-2.06-7.4577 0l-25.462 25.462c-2.0595 2.06-2.0595 5.398 0 7.458z"/>
<path d="m163.94 16.062c-2.059-2.0595-5.399-2.0595-7.458 0l-25.462 25.462c-2.06 2.0594-2.06 5.3982 0 7.4577 2.059 2.0594 5.398 2.0598 7.457 0l25.463-25.462c2.059-2.0595 2.059-5.3983 0-7.4577z"/>
<path d="m112.2 143.59c-2.691 1.115-3.969 4.2-2.854 6.89l4.036 9.744c1.113 2.687 4.195 3.971 6.89 2.854 2.691-1.114 3.968-4.199 2.854-6.89l-4.036-9.744c-1.115-2.691-4.199-3.968-6.89-2.854z"/>
<path d="m67.801 36.408c2.6909-1.1144 3.9684-4.1994 2.854-6.8903l-4.036-9.7439c-1.1148-2.6908-4.1994-3.968-6.8902-2.8539-2.6909 1.1144-3.9685 4.1994-2.854 6.8902l4.0359 9.7439c1.1134 2.6867 4.1956 3.9702 6.8903 2.854z"/>
<path d="m29.518 109.34-9.7439 4.036c-2.6909 1.115-3.9684 4.2-2.854 6.891 1.1131 2.686 4.1956 3.97 6.8903 2.854l9.7439-4.036c2.6909-1.115 3.9684-4.2 2.854-6.891-1.1145-2.69-4.1991-3.967-6.8903-2.854z"/>
<path d="m150.48 70.656 9.744-4.0359c2.691-1.1145 3.969-4.1994 2.854-6.8903-1.114-2.6908-4.199-3.9681-6.89-2.854l-9.744 4.036c-2.691 1.1144-3.968 4.1994-2.854 6.8902 1.113 2.6867 4.196 3.9699 6.89 2.854z"/>
<path d="m60.911 146.45-4.036 9.744c-1.1144 2.691 0.1632 5.776 2.854 6.89 2.7018 1.119 5.7801-0.174 6.8903-2.854l4.0359-9.744c1.1145-2.69-0.1631-5.775-2.854-6.89-2.6912-1.114-5.7758 0.163-6.8902 2.854z"/>
<path d="m119.09 33.554 4.036-9.7439c1.115-2.6908-0.163-5.7754-2.854-6.8902-2.69-1.1141-5.775 0.1631-6.89 2.8539l-4.036 9.7439c-1.114 2.6909 0.163 5.7755 2.854 6.8903 2.702 1.1187 5.781-0.174 6.89-2.854z"/>
<path d="m33.554 60.911-9.7439-4.036c-2.6909-1.1144-5.7755 0.1632-6.8903 2.854-1.1144 2.6909 0.1631 5.7755 2.854 6.8903l9.7439 4.0359c2.7018 1.1187 5.7801-0.174 6.8903-2.854 1.1144-2.6908-0.1631-5.7758-2.854-6.8902z"/>
<path d="m160.23 113.38-9.744-4.036c-2.691-1.114-5.775 0.163-6.89 2.854-1.114 2.691 0.163 5.775 2.854 6.89l9.744 4.036c2.702 1.119 5.78-0.174 6.89-2.854 1.115-2.691-0.163-5.776-2.854-6.89z"/>
<path d="m84.727 153.28v21.446c0 2.912 2.3611 5.273 5.2734 5.273s5.2734-2.361 5.2734-5.273v-21.446c0-2.912-2.3611-5.273-5.2734-5.273s-5.2734 2.361-5.2734 5.273z"/>
<path d="m95.273 26.719v-21.445c0-2.9124-2.3611-5.2734-5.2734-5.2734s-5.2734 2.3611-5.2734 5.2734v21.445c0 2.9123 2.3611 5.2734 5.2734 5.2734s5.2734-2.3611 5.2734-5.2734z"/>
<path d="m0 90c0 2.9123 2.3611 5.2734 5.2734 5.2734h21.445c2.9123 0 5.2734-2.3611 5.2734-5.2734s-2.3611-5.2734-5.2734-5.2734h-21.445c-2.9124 0-5.2734 2.3611-5.2734 5.2734z"/>
<path d="m174.73 84.727h-21.446c-2.912 0-5.273 2.3611-5.273 5.2734s2.361 5.2734 5.273 5.2734h21.446c2.912 0 5.273-2.3611 5.273-5.2734s-2.361-5.2734-5.273-5.2734z"/>
</svg>
