<?xml version="1.0" encoding="UTF-8"?>
<svg fill="#ffffff" viewBox="0 0 180 180" xmlns="http://www.w3.org/2000/svg">
<path d="m170.52 62.699c-4.879-4.7904-11.008-7.8494-17.621-8.8622-2.362-15.128-15.481-26.738-31.261-26.738-5.942 0-11.651 1.6429-16.601 4.7134-3.066-5.1328-7.191-9.5642-12.159-13.023-7.0576-4.9138-15.348-7.5108-23.974-7.5108-23.262 0-42.187 18.925-42.187 42.188 0 0.1445 0.0014 0.2883 0.0042 0.431-6.4695 1.0695-12.459 4.1028-17.246 8.8025-6.1116 6.0008-9.4774 13.959-9.4774 22.407 0 8.4484 3.3659 16.407 9.4774 22.407 6.0638 5.955 14.06 9.234 22.515 9.234h8.1682l-5.3114 13.943 9.8557 3.755 6.7419-17.698h20.354l-5.3114 13.943 9.8557 3.755 6.7419-17.698h20.355l-5.3118 13.943 9.8558 3.755 6.742-17.698h20.354l-5.311 13.943 9.856 3.755 6.741-17.698h1.64c8.455 0 16.451-3.279 22.515-9.234 6.111-6 9.477-13.958 9.477-22.407 0-8.4487-3.366-16.406-9.477-22.407zm-22.515 43.501h-116.02c-11.825 0-21.445-9.4627-21.445-21.094 0-11.631 9.6201-21.094 21.445-21.094h6.6203l-0.9447-6.5468c-0.2067-1.4164-0.4022-2.7541-0.4022-4.0001 0-17.447 14.194-31.641 31.641-31.641 13.03 0 24.558 7.8718 29.371 20.054l2.9232 7.4001 5.676-5.5751c3.979-3.9069 9.222-6.0585 14.765-6.0585 11.631 0 21.093 9.4627 21.093 21.094v5.2734h5.274c11.825 0 21.445 9.4627 21.445 21.094 0 11.631-9.62 21.094-21.445 21.094z"/>
<path d="m42.961 164.95 9.0403-23.744 9.8614 3.755-9.0403 23.743-9.8614-3.754z"/>
<path d="m74.602 164.93 9.0403-23.744 9.8613 3.755-9.0403 23.743-9.8613-3.754z"/>
<path d="m106.24 164.92 9.04-23.743 9.861 3.755-9.04 23.743-9.861-3.755z"/>
</svg>
