<?xml version="1.0" encoding="UTF-8"?>
<svg fill="#ffffff" viewBox="0 0 180 180" xmlns="http://www.w3.org/2000/svg">
<path d="m157.77 82.793c5.365-29.267-17.182-56.074-46.68-56.074-17.046 0-32.299 9.0425-40.705 23.039-11.465-3.7047-23.254-2.1258-32.966 4.5602-9.707 6.6821-15.504 17.262-15.974 28.834-12.971 6.1105-21.45 19.025-21.45 33.215 0 2.431 0.23836 4.862 0.70805 7.227 3.4168 17.202 18.643 29.687 36.206 29.687h105.82c20.549 0 37.266-16.559 37.266-36.914 0-14.524-8.812-27.635-22.226-33.574zm-15.04 59.941h-105.82c-14.414 0-26.367-11.684-26.367-26.367 0-10.986 7.22-20.925 17.966-24.73l3.7442-1.3261-0.2409-3.9649c-0.5663-9.3164 3.6907-18.042 11.388-23.34 8.139-5.6032 18.124-5.9903 27.263-1.8461l4.7503 2.154 2.2061-4.7264c6.0455-12.952 19.183-21.321 33.47-21.321 20.354 0 36.914 16.56 36.914 36.914 0 6.0208-1.27 9.6662-2.675 14.493 3.932 2.0412 4.569 2.4194 5.893 2.873 10.902 3.7343 18.227 13.71 18.227 24.822 0 14.539-11.986 26.367-26.719 26.367z"/>
</svg>
