<?xml version="1.0" encoding="UTF-8"?>
<svg fill="none" viewBox="0 0 180 180" xmlns="http://www.w3.org/2000/svg">
<g clip-path="url(#a)">
<path d="m0.26543 108.65c-1.0536-3.737 1.1222-7.621 4.8596-8.6749 19.636-5.536 36.632-7.4368 53.488-5.9824 3.8685 0.3336 6.734 3.7405 6.4004 7.6093-0.3336 3.869-3.7346 6.736-7.6098 6.401-15.318-1.322-30.266 0.377-48.463 5.507-0.63772 0.18-1.28 0.265-1.9118 0.265-3.0684 0-5.8886-2.025-6.7629-5.125zm110.13 39.002c3.515 0 6.553-2.633 6.974-6.21 0.453-3.857-2.305-7.351-6.162-7.805-9.122-1.073-17.287-2.802-25.184-4.474-11.66-2.469-22.672-4.8-35.965-5.065-13.548-0.268-28.25 1.886-44.937 6.591-3.7374 1.053-5.9132 4.937-4.8596 8.675 1.054 3.738 4.9383 5.913 8.6754 4.859 15.548-4.383 28.525-6.308 40.842-6.065 11.961 0.238 22.342 2.436 33.332 4.763 8.2057 1.737 22.353 4.731 27.284 4.731zm-101.46-96.981c34.238-9.6523 53.014-5.8355 74.756-1.4157 8.0352 1.6333 22.828 4.4925 26.704 4.4925 3.515 0 6.553-2.6328 6.974-6.2102 0.453-3.8566-2.305-7.3511-6.162-7.8046-8.945-1.0525-16.962-2.6824-24.714-4.2584-22.553-4.585-43.856-8.9154-81.373 1.6615-3.7374 1.0536-5.9132 4.9376-4.8596 8.675 1.0536 3.7381 4.938 5.9149 8.675 4.8599zm-1.9114-30.41c0.63175 0 1.2737-0.0858 1.9118-0.2654 18.198-5.1299 33.145-6.8283 48.463-5.5068 3.8748 0.3368 7.2758-2.5319 7.6098-6.4008 0.3339-3.8689-2.5319-7.2758-6.4005-7.6094-16.856-1.4551-33.852 0.44648-53.488 5.9824-3.7381 1.0536-5.9142 4.9376-4.8606 8.675 0.87432 3.0997 3.6945 5.1254 6.7639 5.125zm81.929-0.3129c12.134 2.4535 25.204 4.6638 41.725 4.6638 12.282 0 26.475-1.2227 43.597-4.476 3.815-0.7249 6.32-4.405 5.595-8.2201-0.725-3.8151-4.407-6.32-8.22-5.595-37.651 7.1538-60.121 3.8456-79.91-0.15574-3.8035-0.77096-7.5156 1.692-8.2851 5.498-0.7699 3.806 1.6917 7.5156 5.498 8.2851zm82.697 47.672c-16.3 3.0972-30.234 4.5527-42.572 4.4469-17.016-0.1445-30.074-2.9088-42.704-5.582-6.9903-1.4794-13.592-2.8772-20.747-3.8464-3.8485-0.5214-7.3901 2.1754-7.9118 6.0232-0.521 3.8481 2.1754 7.3901 6.0235 7.9114 6.6392 0.8996 12.995 2.2447 19.723 3.6692 13.308 2.817 27.832 5.73 46.259 5.8865 12.927 0 27.927-1.5346 44.554-4.694 3.815-0.7249 6.32-4.405 5.595-8.2201-0.725-3.8147-4.407-6.3206-8.22-5.5947zm0 32.214c-37.651 7.1542-60.121 3.8452-79.91-0.1557-3.8035-0.7699-7.5156 1.6919-8.2851 5.4979-0.7696 3.806 1.692 7.516 5.4983 8.285 12.134 2.454 25.204 4.664 41.724 4.664 12.283 0 26.475-1.223 43.598-4.476 3.815-0.725 6.319-4.405 5.595-8.22-0.726-3.815-4.408-6.3215-8.221-5.5952zm0 61.874c-41.373 7.861-63.802 3.201-85.494-1.306-6.9183-1.437-13.453-2.795-20.529-3.754-3.8485-0.521-7.3901 2.176-7.9118 6.023-0.521 3.848 2.1754 7.39 6.0235 7.912 6.5868 0.892 12.887 2.201 19.557 3.587 13.447 2.794 27.99 5.816 47.374 5.816 12.277 0 26.497-1.213 43.605-4.463 3.815-0.725 6.32-4.406 5.595-8.221-0.725-3.814-4.407-6.32-8.22-5.594zm0-31.289c-12.655 2.405-23.15 3.789-32.082 4.233-3.879 0.192-6.866 3.492-6.674 7.371 0.187 3.76 3.293 6.682 7.017 6.682 0.117 0 0.235-2e-3 0.354-8e-3 9.587-0.476 20.712-1.936 34.01-4.463 3.815-0.725 6.32-4.405 5.595-8.22s-4.407-6.32-8.22-5.595zm-31.734-75.228c8.873-0.4401 19.393-1.8886 34.359-4.7323 3.815-0.7249 6.32-4.405 5.595-8.2201s-4.407-6.3203-8.22-5.595c-14.296 2.7165-23.891 4.0489-32.083 4.4553-3.878 0.1923-6.866 3.4927-6.674 7.3711 0.188 3.7599 3.3 6.721 7.023 6.721zm-111.02 101.54c-7.5589 1.065-15.337 2.739-23.779 5.119-3.7374 1.054-5.9132 4.938-4.8596 8.675 0.87397 3.1 3.6945 5.125 6.7636 5.125 0.63175 0 1.2737-0.086 1.9118-0.265 7.8267-2.207 14.998-3.753 21.924-4.729 3.8454-0.541 6.5235-4.097 5.9821-7.942-0.5414-3.846-4.1016-6.523-7.943-5.983zm0-93.735c-7.1338 1.0044-14.952 2.277-23.779 4.7653-3.7374 1.0537-5.9132 4.9377-4.8596 8.675 0.87397 3.0997 3.6945 5.1254 6.7636 5.1254 0.63175 0 1.2737-0.0858 1.9118-0.2658 8.0225-2.2616 15.278-3.4393 21.924-4.3751 3.8454-0.5414 6.5235-4.0974 5.9821-7.9427-0.5414-3.8457-4.1016-6.5238-7.943-5.9821z" fill="#fff"/>
</g>
<defs>
<clipPath id="a">
<rect width="180" height="180" fill="#fff"/>
</clipPath>
</defs>
</svg>
